<svg width="52" height="23" viewBox="0 0 52 23" fill="none" xmlns="http://www.w3.org/2000/svg">
<path d="M7.66713 19.1038C7.33401 19.1476 6.93499 19.0726 6.60735 18.9882C6.46875 18.96 6.34204 18.9303 6.18171 18.8819C6.15301 18.874 6.05991 18.8631 6.04727 18.8068L6.04236 18.7958C6.008 18.7192 6.08562 18.6394 6.04144 18.5408L6.03653 18.5299C6.04352 18.5174 6.02672 18.508 6.0169 18.4861C5.99028 18.4548 5.93986 18.4267 5.89643 18.386L5.83129 18.325C5.79975 18.2828 5.76331 18.2296 5.74368 18.1858C5.71914 18.131 5.70366 18.0403 5.7386 17.9777C5.74559 17.9652 5.75749 17.9636 5.76939 17.9621C5.80508 17.9574 5.85758 17.962 5.88137 17.9589C6.0521 17.89 6.19694 17.8478 6.20585 17.6147C6.14586 17.0312 6.0313 16.4664 5.85443 15.8751C5.81857 15.6827 5.75684 15.5169 5.707 15.3495C5.68246 15.2947 5.66981 15.2384 5.66208 15.1931C5.59336 15.0398 5.32105 14.9944 5.20965 14.8583L5.17812 14.8161C5.14376 14.7395 5.29634 14.7426 5.30749 14.6831L5.30183 14.6143L5.29201 14.5924C5.26747 14.5376 5.20025 14.5001 5.1757 14.4453L5.1995 14.4422C5.27088 14.4328 5.28486 14.4078 5.26523 14.364C5.2505 14.3311 5.21406 14.2779 5.18952 14.2232C5.16006 14.1575 5.21048 14.1856 5.22446 14.1606C5.23145 14.1481 5.23769 14.0777 5.23977 14.0542C5.23694 14.0198 5.22221 13.987 5.20258 13.9432C5.14368 13.8118 5.03436 13.6522 4.96638 13.5568L4.92295 13.5161C4.85989 13.4317 4.76396 13.3863 4.66804 13.3409C4.5672 13.2846 4.43841 13.2784 4.39423 13.1799C4.34024 13.0594 4.41919 12.8983 4.47793 12.8325C4.50381 12.8059 4.60522 12.723 4.57785 12.6338L4.55331 12.5791C4.48326 12.5071 4.34881 12.4321 4.30954 12.3445C4.27726 12.2444 4.34091 12.1896 4.30164 12.102C4.27693 11.8501 4.06869 11.4137 4.29324 11.2682L4.32893 11.2635C4.37652 11.2572 4.46263 11.2806 4.50814 11.2978C4.63485 11.3275 4.79234 11.3416 4.90433 11.3385C5.0758 11.3275 5.26125 11.2915 5.41591 11.2711C5.4754 11.2633 5.53772 11.2899 5.5972 11.282C5.65669 11.2742 5.70844 11.221 5.76793 11.2132C5.91768 11.1819 6.07518 11.1959 6.21794 11.1771C6.3964 11.1536 6.5118 11.0457 6.66855 11.0018C6.72803 10.994 6.81206 11.0409 6.87155 11.0331C6.93312 11.0018 7.01773 10.9095 7.07722 10.9016C7.12273 10.9188 7.14935 10.9501 7.18504 10.9454C7.30401 10.9298 7.41733 10.8453 7.52932 10.8421C7.59862 10.8562 7.63789 10.9438 7.70719 10.9579L7.77858 10.9485C7.86186 10.9375 7.96403 10.9124 8.03541 10.903C8.26146 10.8733 8.45107 10.7903 8.66522 10.7621C8.7485 10.7512 8.82271 10.7762 8.89618 10.7433C9.01024 10.7167 8.96116 10.6072 9.02971 10.5634C9.18646 10.5196 9.38247 10.5634 9.54903 10.5414C9.60852 10.5336 9.64837 10.482 9.70786 10.4741C9.75545 10.4679 9.80587 10.496 9.83174 10.4694C9.88141 10.4397 9.87858 10.4053 9.92825 10.3755L9.95205 10.3724C10.0115 10.3646 10.0857 10.3896 10.1452 10.3818C10.1809 10.3771 10.1732 10.3317 10.2089 10.327C10.3279 10.3113 10.521 10.3207 10.6547 10.3379C10.7191 10.341 10.9229 10.4301 10.9503 10.5193C10.9412 10.5553 10.846 10.5678 10.8874 10.6319C10.9525 10.693 11.0141 10.6617 11.0645 10.6898C11.103 10.7195 11.1296 10.7508 11.1394 10.7727C11.1591 10.8165 11.1381 10.8541 11.1725 10.9307C11.2061 10.9495 11.2635 10.9651 11.2733 10.987C11.2782 10.998 11.2138 10.9948 11.2019 10.9964C11.1949 11.0089 11.1173 11.0887 11.1222 11.0997C11.1279 11.1685 11.1755 11.1622 11.2021 11.1935C11.2308 11.2013 11.2406 11.2232 11.2574 11.2326L11.2672 11.2545C11.2918 11.3093 11.247 11.35 11.2142 11.3891C11.2736 11.3812 11.2954 11.4016 11.3003 11.4125C11.315 11.4454 11.294 11.4829 11.278 11.5314L11.2829 11.5424C11.3397 11.6972 11.0003 11.8115 10.8219 11.835C10.3957 11.8679 9.96943 11.9008 9.54112 11.9572C9.38646 11.9776 9.2199 11.9995 9.05824 12.0324C8.56138 12.1326 8.06527 12.2907 7.58805 12.4347C7.33612 12.491 7.09684 12.6037 6.8232 12.6397L6.66854 12.6601C6.57336 12.6726 6.47818 12.6852 6.43833 12.7368C6.41944 12.7509 6.42227 12.7853 6.42019 12.8088C6.43983 12.8526 6.49307 12.9151 6.50081 12.9605L6.70206 13.4095C6.72661 13.4642 6.76097 13.5409 6.79741 13.594C6.82403 13.6253 6.87653 13.63 6.91222 13.6253C6.94791 13.6206 6.9668 13.6065 6.99059 13.6034C7.13261 13.5267 7.30126 13.4813 7.4461 13.4391C7.50068 13.4203 7.58113 13.3749 7.65535 13.3999C7.70086 13.4171 7.70369 13.4515 7.73031 13.4828C7.76883 13.5125 7.93406 13.572 7.97957 13.5892C8.02017 13.5954 8.07267 13.6001 8.12026 13.5938C8.27492 13.5735 8.42393 13.4843 8.5667 13.4655C8.61429 13.4592 8.74516 13.442 8.71571 13.3763L8.68135 13.2996C8.6281 13.2371 8.53292 13.2496 8.47061 13.223L8.5182 13.2167C8.56579 13.2105 8.60148 13.2058 8.61753 13.1573C8.63151 13.1322 8.58808 13.0916 8.61887 13.0759L8.68534 13.0556C8.78052 13.0431 8.93103 13.0696 9.02412 13.0806C9.05982 13.0759 9.1193 13.068 9.1599 13.0743C9.17671 13.0837 9.18445 13.129 9.20125 13.1384L9.28112 13.2323C9.32455 13.2729 9.35118 13.3042 9.35192 13.3621C9.35966 13.4075 9.30999 13.4372 9.32963 13.481C9.35625 13.5123 9.38004 13.5092 9.40384 13.506C9.45143 13.4998 9.5179 13.4794 9.53263 13.5123L9.53754 13.5232C9.56 13.6014 9.45367 13.6734 9.45442 13.7313L9.44743 13.7438C9.46216 13.7767 9.5496 13.7188 9.55035 13.7766C9.5917 13.8408 9.36224 13.9753 9.55958 13.9378C9.5575 13.9612 9.4491 14.0567 9.46382 14.0895C9.48554 14.1099 9.5709 14.0754 9.58279 14.0739C9.63038 14.0676 9.60451 14.0942 9.61924 14.1271C9.62414 14.138 9.63604 14.1364 9.64794 14.1349C9.67173 14.1317 9.67173 14.1317 9.67664 14.1427C9.69345 14.1521 9.61299 14.1975 9.59902 14.2225C9.57805 14.26 9.57389 14.307 9.59353 14.3508L9.61316 14.3946C9.63978 14.4259 9.70701 14.4634 9.7546 14.4571C9.71682 14.4853 9.66225 14.5041 9.63429 14.5541C9.61125 14.6152 9.66657 14.6543 9.62672 14.7059C9.51132 14.8139 9.32379 14.8733 9.15307 14.9422C8.82144 15.1018 8.46319 15.2302 8.12175 15.3679C7.96991 15.4227 7.79919 15.4915 7.62073 15.515L7.57314 15.5213C7.51365 15.5291 7.44227 15.5385 7.44301 15.5964C7.43395 15.6324 7.45641 15.7106 7.49285 15.7638C7.51606 15.8999 7.55608 16.0454 7.5961 16.1908C7.71066 16.7556 7.82805 17.3547 7.98812 17.9367C8.04702 18.0681 8.14727 18.2636 8.21391 18.4404C8.25601 18.5624 8.2932 18.6735 8.24428 18.7611C8.12547 18.9739 7.91698 19.0709 7.66713 19.1038ZM16.3227 18.0802C16.18 18.099 16.0323 18.1069 15.8895 18.1256C15.2135 18.1915 14.4638 18.093 13.7441 17.9211C13.5768 17.8851 13.4087 17.7913 13.2484 17.7428C13.0069 17.6818 12.8122 17.5567 12.5986 17.4457C12.5531 17.4284 12.376 17.3706 12.3871 17.3111C12.3892 17.2877 12.4774 17.2877 12.4963 17.2736C12.5271 17.2579 12.5186 17.1547 12.5424 17.1515C12.5543 17.15 12.6223 17.2454 12.6391 17.2548C12.7259 17.3361 12.8288 17.369 12.9297 17.4253C12.9465 17.4346 12.9584 17.4331 12.9822 17.4299L13.006 17.4268C13.0298 17.4237 13.0654 17.419 13.1208 17.4581L13.1425 17.4784C13.174 17.5207 13.2203 17.5957 13.2735 17.6583C13.3268 17.7209 13.3702 17.7615 13.4297 17.7537C13.5151 17.7193 13.4954 17.6755 13.4541 17.6113C13.3574 17.5081 13.2118 17.4925 13.113 17.4127L13.0913 17.3924C13.0598 17.3501 13.0234 17.297 13.0373 17.2719C13.0632 17.2453 13.1304 17.2829 13.1472 17.2922C13.2522 17.3016 13.3621 17.3219 13.4433 17.3344C13.472 17.3423 13.5225 17.3704 13.5463 17.3673C13.5581 17.3657 13.57 17.3641 13.5651 17.3532C13.5504 17.3203 13.3586 17.2296 13.3249 17.2109C13.2983 17.1796 13.2668 17.1374 13.2115 17.0983C13.1512 17.0482 13.0532 17.0263 13.0098 16.9856C12.9594 16.9575 12.8942 16.8965 12.8466 16.9028L12.8347 16.9043C12.7872 16.9106 12.8047 16.9779 12.7907 17.0029C12.7718 17.017 12.7054 17.0373 12.634 17.0467C12.5745 17.0545 12.4982 17.053 12.4765 17.0327L12.4667 17.0108C12.4519 16.9779 12.475 16.9169 12.4603 16.884C12.4238 16.8309 12.3923 16.7886 12.3727 16.7448L12.3663 16.6181C12.3606 16.5493 12.3627 16.5258 12.3984 16.5211C12.5054 16.507 12.78 16.726 12.8212 16.593C12.8233 16.5695 12.7806 16.5868 12.7806 16.5868L12.7687 16.5883C12.7211 16.5946 12.6539 16.5571 12.6055 16.5054C12.5789 16.4742 12.5642 16.4413 12.5614 16.4069C12.5753 16.3819 12.5823 16.3693 12.6061 16.3662C12.6775 16.3568 12.7763 16.4366 12.8078 16.4788C12.8008 16.4913 12.8491 16.5429 12.8561 16.5304C12.9009 16.4897 12.7776 16.3552 12.7817 16.3083C12.7691 16.252 12.8615 16.205 12.8992 16.1769C13.0105 16.1158 13.1343 16.1111 13.2701 16.1048C13.3366 16.0845 13.3814 16.0438 13.4527 16.0344C13.7383 15.9968 14.1458 16.1751 14.467 16.1328L14.4908 16.1297C14.5503 16.1218 14.5565 16.0514 14.6398 16.0405C14.7399 16.0389 14.8666 16.0686 14.9737 16.0545C15.4377 15.9934 15.9206 15.9182 16.367 15.7899C16.6826 15.6788 17.1171 15.552 17.2106 15.2266C17.2337 15.1656 17.2953 15.1343 17.2609 15.0576C17.263 15.0341 17.2532 15.0122 17.2433 14.9903L17.2286 14.9575C17.1705 14.884 17.0318 14.8558 16.9338 14.8339C16.5992 14.762 16.2387 14.7167 15.9245 14.7465C15.5815 14.7685 15.2239 14.7576 14.8809 14.7795C14.2069 14.8219 13.4763 14.9065 12.7461 14.6547C12.4373 14.5562 12.1201 14.3544 11.8225 14.1965C11.6138 14.0964 11.3933 13.9979 11.1769 13.8524C11.1285 13.8008 11.0606 13.7054 11.0262 13.6287C10.9673 13.4973 10.9343 13.3393 10.9377 13.2345C10.9549 12.9075 11.0996 12.6682 11.1959 12.3772C11.2532 12.1957 11.2677 12.0314 11.3922 11.8875C11.5327 11.695 11.6585 11.4697 11.8376 11.307C12.162 10.9628 12.5902 10.7093 13.0183 10.4558C13.5178 10.1929 14.0293 9.9284 14.6136 9.7703C14.9578 9.667 15.3217 9.60749 15.7025 9.55737C15.9404 9.52604 16.261 9.62298 16.5096 9.67144C16.665 9.70896 16.8015 9.76057 16.9639 9.78557C17.0213 9.80121 17.0927 9.79181 17.1501 9.80744C17.3055 9.84496 17.4666 9.95132 17.6059 10.0373C17.7187 10.0921 17.8139 10.0795 17.9028 10.1374C17.977 10.1624 18.045 10.2579 18.1052 10.3079C18.2593 10.4268 18.4183 10.5566 18.5297 10.6927C18.6046 10.7756 18.6509 10.8507 18.6902 10.9383C18.7196 11.004 18.7372 11.0712 18.7477 11.151C18.7661 11.2762 18.6269 11.3873 18.5345 11.4342C18.4541 11.4796 18.3757 11.5015 18.2805 11.514C17.9831 11.5532 17.605 11.4406 17.2732 11.4031C17.1157 11.3891 16.9562 11.3985 16.7896 11.4204L16.4089 11.4705C15.5761 11.5802 14.8001 11.8447 14.1916 12.3423C14.0314 12.4909 13.8614 12.6177 13.7062 12.7773C13.6733 12.8164 13.5502 12.879 13.5558 12.9478L13.5608 12.9588C13.5755 12.9916 13.621 13.0088 13.6665 13.026C13.7813 13.0573 13.8695 13.0573 13.9815 13.0541C14.4372 13.0869 14.8732 13.0759 15.3219 13.1212C15.4913 13.1337 15.6459 13.1133 15.8104 13.1148C15.9658 13.1524 16.1381 13.1993 16.2837 13.2149C16.8066 13.2852 17.375 13.3727 17.891 13.6527C18.3735 13.9138 18.812 14.2736 19.163 14.6912C19.301 14.8586 19.4271 15.0275 19.5295 15.1996C19.5953 15.3185 19.6949 15.4561 19.7587 15.5985C19.793 15.6751 19.8106 15.7424 19.8162 15.8112C19.817 15.8691 19.7911 15.8957 19.787 15.9427C19.7807 16.0131 19.8032 16.0913 19.8018 16.1726C19.707 16.5794 19.4265 16.8251 19.1223 17.0738C18.9026 17.2303 18.6297 17.3242 18.3667 17.44C18.184 17.5105 18.0399 17.6106 17.8573 17.681C17.6649 17.7296 17.4851 17.8344 17.2976 17.8939C16.9792 17.9706 16.6559 18.0364 16.3227 18.0802ZM13.1872 16.51C13.2208 16.5288 13.2536 16.4897 13.2942 16.4959C13.4021 16.5397 13.5652 16.6226 13.6738 16.7243C13.6787 16.7352 13.6955 16.7446 13.6955 16.7446C13.7201 16.7994 13.5745 16.7837 13.6564 16.8541C13.7097 16.9167 13.8847 16.998 13.9414 16.9558C13.9791 16.9276 13.9217 16.912 13.9119 16.8901C13.907 16.8791 13.9259 16.865 13.9161 16.8431L13.9112 16.8322C13.8915 16.7884 13.792 16.6507 13.7752 16.6414C13.7416 16.6226 13.6177 16.6273 13.6289 16.5678C13.6211 16.5225 13.7261 16.5319 13.738 16.5303C13.8094 16.5209 13.9586 16.6288 14.03 16.6194C14.0657 16.6147 14.0915 16.5881 14.0908 16.5302L14.0859 16.5193C14.0613 16.4645 13.8542 16.4802 13.8206 16.4614C13.8087 16.463 13.7197 16.4051 13.7148 16.3942C13.7099 16.3832 13.7645 16.3645 13.719 16.3473C13.7022 16.3379 13.6854 16.3285 13.6616 16.3316C13.6378 16.3347 13.6315 16.4051 13.5839 16.4114L13.572 16.413C13.5364 16.4177 13.4215 16.3864 13.3879 16.3676C13.3235 16.3645 13.2437 16.2707 13.1842 16.2785C13.1366 16.2848 13.0982 16.4522 13.1872 16.51ZM13.915 16.391C13.9465 16.4333 14.0375 16.4677 14.097 16.4598C14.1565 16.452 14.1635 16.4395 14.1845 16.4019C14.2292 16.3612 14.2481 16.3472 14.2432 16.3362C14.2334 16.3143 14.162 16.3237 14.0976 16.3206C14.064 16.3018 14.0234 16.2956 13.9996 16.2987C13.9044 16.3112 13.9003 16.3582 13.9101 16.3801L13.915 16.391ZM24.7755 16.7818C24.6467 16.7756 24.5327 16.8022 24.4137 16.8179C24.1638 16.8508 24.0581 16.7835 23.8677 16.8086L23.7964 16.818C23.6893 16.8321 23.5416 16.8399 23.4646 16.7805C23.431 16.7617 23.4113 16.7179 23.4302 16.7038L23.454 16.7007C23.4897 16.696 23.559 16.7101 23.5947 16.7054L23.6661 16.696C23.7494 16.685 23.8347 16.6506 23.918 16.6396L23.9537 16.6349C23.9894 16.6302 24.0489 16.6224 24.0292 16.5786C24.0362 16.5661 23.9648 16.5755 23.9529 16.577C23.9123 16.5708 23.7003 16.5755 23.6806 16.5317C23.661 16.4879 23.7611 16.4863 23.7849 16.4832L23.8087 16.4801C23.8563 16.4738 23.9207 16.4769 23.9682 16.4706C24.0277 16.4628 24.0823 16.444 24.0935 16.3846C24.1074 16.3596 24.048 16.3674 24.0311 16.358C24.0143 16.3486 24.0234 16.3126 23.9947 16.3048C23.9037 16.2704 23.8212 16.3393 23.7281 16.3283C23.7043 16.3315 23.6895 16.2986 23.6916 16.2751C23.6986 16.2626 23.7056 16.2501 23.7294 16.247C23.777 16.2407 23.8799 16.2735 23.9275 16.2673C23.987 16.2594 23.9435 16.2188 23.9575 16.1937C24.0282 16.1265 24.0939 16.0482 24.1911 16.0122C24.343 15.9575 24.5144 15.9465 24.6663 15.8917C24.7209 15.8729 24.7803 15.8651 24.8083 15.815L24.8153 15.8025C24.7936 15.7822 24.627 15.8041 24.5913 15.8088C24.6123 15.7713 24.7214 15.7337 24.7088 15.6774L24.6871 15.657C24.6605 15.6258 24.5961 15.6226 24.5604 15.6273C24.4652 15.6399 24.3798 15.6743 24.2847 15.6868C24.2133 15.6962 24.1321 15.6837 24.0705 15.715C24.0397 15.7307 23.8767 15.8449 23.8375 15.7573L23.8276 15.7354C23.7982 15.6697 23.9466 15.7197 23.9844 15.6916C23.9935 15.6556 23.9549 15.6259 23.9738 15.6118C24.0067 15.5727 24.1047 15.5946 24.1593 15.5758C24.1831 15.5726 24.2089 15.546 24.2327 15.5429C24.2614 15.5507 24.2692 15.5961 24.3049 15.5914C24.3406 15.5867 24.3812 15.5929 24.4169 15.5882C24.5239 15.5741 24.645 15.535 24.7402 15.5225C24.7828 15.5053 25.0446 15.4708 25.0102 15.3942C24.9955 15.3613 24.9668 15.3535 24.943 15.3566C24.8954 15.3629 24.8457 15.3926 24.8338 15.3942C24.7764 15.3786 24.7736 15.3441 24.7141 15.352C24.5952 15.3676 24.6184 15.5037 24.4994 15.5194C24.4161 15.5304 24.4511 15.4678 24.4363 15.4349L24.4314 15.424C24.4048 15.3927 24.3432 15.424 24.2956 15.4303L24.1529 15.4491C24.0696 15.46 23.9982 15.4694 23.9366 15.5007C23.8989 15.5289 23.8947 15.5758 23.8688 15.6024C23.8262 15.6196 23.7925 15.6009 23.745 15.6071C23.7142 15.6228 23.6883 15.6494 23.6526 15.6541C23.6169 15.6588 23.5903 15.6275 23.5518 15.5978C23.4706 15.5853 23.3537 15.5775 23.2704 15.5884C23.2466 15.5916 23.0738 15.6839 23.0836 15.7058C23.0815 15.7293 23.1578 15.7308 23.1697 15.7292L23.253 15.7183C23.3363 15.7073 23.4434 15.6932 23.4462 15.7276C23.4469 15.7855 23.3448 15.8106 23.3021 15.8278C23.1593 15.8466 22.8927 15.8701 22.7505 15.7496L22.7337 15.7403C22.6972 15.6871 22.6916 15.6182 22.6432 15.5666C22.7027 15.5588 22.7979 15.5463 22.8651 15.5838C22.9106 15.601 22.9373 15.6323 22.9898 15.637C23.073 15.626 23.1416 15.5822 23.0666 15.4993L23.1023 15.4946C23.1975 15.4821 23.2493 15.4289 23.3395 15.4054C23.406 15.385 23.4851 15.421 23.5537 15.3772C23.5845 15.3615 23.5648 15.3177 23.5837 15.3037C23.6572 15.2708 23.7524 15.2583 23.8307 15.2363C23.9945 15.18 24.1484 15.1018 24.3023 15.0235C24.3996 14.9875 24.4653 14.9093 24.5527 14.8514C24.5835 14.8357 24.643 14.8279 24.6521 14.7919C24.6828 14.7763 24.6394 14.7356 24.6702 14.72C24.8402 14.5932 25.1138 14.5572 25.3202 14.4836C25.4622 14.4069 25.5875 14.3209 25.7127 14.2348C25.7623 14.2051 25.8715 14.1675 25.8421 14.1018L25.8154 14.0705C25.7671 14.0189 25.7048 13.9923 25.6593 13.9751C25.3288 13.8563 24.981 13.8673 24.6688 13.8736C24.5736 13.8861 24.4616 13.8893 24.3664 13.9018C23.8192 13.9739 23.3063 14.1226 22.82 14.3025C22.6205 14.3636 22.4113 14.4027 22.2385 14.4951C22.1769 14.5264 22.1006 14.5248 22.0489 14.578C22.016 14.6171 22.0553 14.7047 22.0728 14.772C22.0849 14.9675 22.1544 15.1787 22.1832 15.3837C22.191 15.429 22.1995 15.5323 22.2289 15.598L22.2506 15.6183C22.3039 15.6809 22.4081 15.6324 22.4557 15.6261C22.4249 15.6418 22.3704 15.6605 22.3613 15.6965C22.3641 15.7309 22.4629 15.8107 22.43 15.8498C22.4279 15.8733 22.3467 15.8608 22.3229 15.8639C22.304 15.878 22.2432 15.9672 22.2411 15.9906C22.2391 16.0141 22.2321 16.0266 22.237 16.0376C22.2566 16.0814 22.3301 16.0485 22.3399 16.0704C22.3546 16.1033 22.3189 16.108 22.2951 16.1111C22.1643 16.1283 22.2281 16.2707 22.1861 16.3458C22.1722 16.3708 22.1365 16.3755 22.1127 16.3786L22.0056 16.3927C21.9461 16.4006 21.9034 16.4178 21.914 16.4976L21.9021 16.4991L21.8825 16.4553C21.8628 16.4115 21.8432 16.3677 21.8075 16.3724C21.7123 16.385 21.7761 16.5273 21.7027 16.5602C21.6579 16.6009 21.5627 16.6134 21.511 16.6666C21.4683 16.6838 21.4592 16.7198 21.4166 16.737C21.2192 16.7746 20.9105 16.6761 20.6878 16.601C20.6017 16.5776 20.5037 16.5557 20.4008 16.5228C20.3721 16.515 20.3028 16.501 20.2881 16.4681C20.2684 16.4243 20.3013 16.3852 20.3034 16.3617C20.3075 16.3148 20.2634 16.2162 20.2388 16.1615L20.2073 16.1193C20.1372 16.0473 20.0532 16.0004 20.009 15.9018C19.9669 15.7798 19.9892 15.6609 19.9856 15.5686C19.9736 15.3731 19.9426 15.1916 19.9355 15.007C19.9347 14.9491 19.9459 14.8897 19.95 14.8427C19.9491 14.5877 19.9076 14.3265 19.8829 14.0746C19.8461 13.6272 19.8332 13.1766 19.7439 12.7245C19.7411 12.6901 19.7312 12.6682 19.7165 12.6354C19.6478 12.4821 19.4958 12.3397 19.432 12.1974C19.3899 12.0754 19.4331 11.9189 19.3791 11.7985C19.3693 11.7766 19.3763 11.7641 19.3595 11.7547C19.3014 11.6811 19.2181 11.6921 19.1746 11.6514C19.1648 11.6295 19.169 11.5826 19.1711 11.5591L19.1563 11.5263C19.1318 11.4715 19.0736 11.398 19.061 11.3417C19.0231 11.1728 18.997 11.0022 19.0501 10.8677C19.1081 10.7441 19.2403 10.6455 19.2241 10.4969C19.2226 10.3811 19.1924 10.2575 19.1433 10.148C19.1159 10.0589 19.0648 9.97284 19.0899 9.88836C19.0989 9.85238 19.1871 9.85236 19.213 9.82576C19.2599 9.76162 19.2017 9.6881 19.2653 9.63333C19.3199 9.61455 19.3745 9.59577 19.4459 9.58637C19.6006 9.56601 19.7867 9.58788 19.9569 9.65825C20.0647 9.70204 20.1971 9.80058 20.3021 9.80995C20.3427 9.8162 20.3952 9.82088 20.4428 9.81462C20.5141 9.80522 20.5876 9.77236 20.6541 9.75201C21.3188 9.54853 22.0299 9.42013 22.729 9.2933C22.962 9.25103 23.2069 9.20718 23.4449 9.17586C23.9208 9.1132 24.4282 9.09279 24.956 9.17405C25.4838 9.25532 25.9467 9.4727 26.4061 9.79489C26.6225 9.94035 26.8241 10.053 26.9699 10.2657L27.0063 10.3189C27.0309 10.3736 27.0365 10.4425 27.0422 10.5113C27.0647 10.5895 27.1109 10.6646 27.1264 10.7553C27.123 10.8601 27.0573 10.9384 27.0251 11.0354C26.8064 11.4469 26.4036 11.813 26.0041 12.0743C25.86 12.1745 25.7327 12.284 25.5886 12.3841C25.5628 12.4107 25.4466 12.4608 25.4425 12.5077L25.4474 12.5187C25.4789 12.5609 25.6511 12.6078 25.6966 12.625C25.9648 12.7173 26.2329 12.8096 26.499 12.9253C26.9688 13.1301 27.3484 13.3585 27.7224 13.7151C27.8674 13.87 28.0068 13.956 28.1259 14.1374C28.1673 14.2016 28.2016 14.2782 28.236 14.3549C28.2802 14.4534 28.3293 14.5629 28.3566 14.6521C28.4282 14.8398 28.3422 15.0135 28.2773 15.1496C28.1703 15.3608 28.0319 15.5298 27.8361 15.6831C27.2884 16.0915 26.6264 16.3294 25.9211 16.5267C25.5481 16.6221 25.1829 16.763 24.7755 16.7818ZM22.5538 16.5757C22.5727 16.5616 22.6182 16.5788 22.635 16.5882C22.7043 16.6023 22.929 16.6538 22.9066 16.5756C22.9947 16.5756 23.1166 16.5944 23.2006 16.6413C23.1481 16.6366 23.062 16.6132 23.0144 16.6194C22.9668 16.6257 23.034 16.6632 23.0438 16.6851C23.0487 16.6961 23.0368 16.6976 23.0249 16.6992C22.9536 16.7086 22.7506 16.6773 22.6645 16.6539C22.6427 16.6336 22.5328 16.6132 22.5538 16.5757ZM21.7764 12.6773C21.7932 12.6867 21.8051 12.6851 21.8289 12.682C21.9003 12.6726 21.9471 12.6084 21.9968 12.5787C22.1052 12.4832 22.2521 12.4175 22.3388 12.3017C22.3717 12.2626 22.3492 12.1844 22.394 12.1437C22.5234 12.0107 22.6962 11.9184 22.8473 11.8057C23.1564 11.5679 23.4635 11.3535 23.7461 11.0844C23.8307 10.9921 23.9706 10.9389 24.0433 10.8481C24.0713 10.7981 24.0754 10.7511 24.0509 10.6964L24.0313 10.6526C23.9878 10.6119 23.9087 10.5759 23.8422 10.5963C23.2481 10.7325 22.6806 10.9 22.1033 11.0455C21.9039 11.1066 21.554 11.1411 21.4344 11.296C21.3855 11.3836 21.4247 11.4712 21.464 11.5588C21.5769 11.8106 21.5926 12.0985 21.6796 12.3769C21.6803 12.4348 21.6714 12.6679 21.7764 12.6773ZM22.0423 12.5959C22.0402 12.6194 22.2068 12.5974 22.2306 12.5943L22.2782 12.588C22.3615 12.5771 22.4349 12.5442 22.5301 12.5317L22.6372 12.5176C22.6729 12.5129 22.7205 12.5066 22.7394 12.4925C22.7652 12.4659 22.712 12.4034 22.7329 12.3658C22.77 12.2798 22.9407 12.2109 23.031 12.1874L23.0457 12.2203C23.0555 12.2422 23.0555 12.2422 23.0674 12.2406C23.1031 12.2359 23.1303 12.128 23.1422 12.1264C23.1611 12.1123 23.1828 12.1326 23.1877 12.1436C23.2459 12.2171 23.569 11.9542 23.3953 11.7916C23.34 11.7525 23.2994 11.7462 23.2637 11.7509C23.1685 11.7634 23.0909 11.8432 23.0293 11.8745C22.9776 11.9277 22.9258 11.9809 22.8691 12.0232C22.8055 12.078 22.7033 12.103 22.6397 12.1578C22.5571 12.2266 22.4795 12.3064 22.3872 12.3534C22.2878 12.4128 22.2193 12.4566 22.1417 12.5364C22.1158 12.563 22.0563 12.5709 22.0423 12.5959ZM28.6008 16.545C28.584 16.5356 28.5721 16.5371 28.5671 16.5262L28.5356 16.4839C28.5062 16.4182 28.5054 16.3604 28.5145 16.3244C28.5088 16.2555 28.4843 16.2008 28.4786 16.132C28.4877 16.096 28.5226 16.0334 28.51 15.9771C28.4973 15.9208 28.4728 15.866 28.4721 15.8081C28.4643 15.7628 28.4209 15.7221 28.4251 15.6752C28.4271 15.6517 28.4796 15.6564 28.4887 15.6204C28.4859 15.586 28.4473 15.5563 28.4494 15.5328C28.4606 15.4733 28.4829 15.3544 28.4415 15.2903C28.4366 15.2794 28.3645 15.2309 28.333 15.1886C28.3063 15.1574 28.3805 15.1824 28.3994 15.1683C28.4183 15.1542 28.4315 15.0713 28.4119 15.0275C28.3874 14.9727 28.127 14.9259 28.143 14.8774C28.1472 14.8304 28.1751 14.7804 28.1793 14.7334L28.1687 14.6536C28.1491 14.6098 28.1225 14.5786 28.1672 14.5379C28.2239 14.4956 28.2135 14.613 28.2492 14.6083L28.2611 14.6067C28.3563 14.5942 28.3659 14.4189 28.3602 14.3501C28.3644 14.3032 28.2951 14.2891 28.3063 14.2297C28.2985 14.1843 28.3461 14.178 28.3552 14.142C28.3733 14.0701 28.3697 13.9778 28.3354 13.9011C28.2716 13.7588 28.1862 13.7932 28.1645 13.7729C28.1596 13.7619 28.1428 13.7525 28.1379 13.7416C28.1133 13.6868 28.1622 13.5992 28.2077 13.6164C28.186 13.5961 28.1811 13.5851 28.1713 13.5632C28.1468 13.5085 28.1649 13.4365 28.1642 13.3786L28.1427 12.8248C28.1342 12.7216 28.1614 12.6136 28.1648 12.5088C28.1612 12.4165 28.1052 12.3195 28.1184 12.2366C28.1275 12.2006 28.187 12.1928 28.1792 12.1474C28.1855 12.077 28.1154 12.0051 28.1237 11.9112C28.1181 11.8424 28.1985 11.797 28.1929 11.7282C28.197 11.6812 28.1368 11.6312 28.134 11.5968C28.1283 11.5279 28.1493 11.4904 28.1436 11.4216L28.0679 11.2808C28.0188 11.1713 28.0902 11.1619 28.0825 11.1165L28.0249 10.9038C28.0241 10.8459 28.0353 10.7864 28.0345 10.7285C28.0015 10.5705 27.9468 10.3922 27.8731 10.228L27.8486 10.1732C27.8241 10.1185 27.7848 10.0309 27.7729 10.0324C27.7442 10.0246 27.7183 10.0512 27.7113 10.0637C27.7043 10.0762 27.731 10.1075 27.724 10.12C27.6792 10.1607 27.6029 10.1592 27.5967 10.2296C27.5485 10.3751 27.5864 10.544 27.5957 10.7051C27.5972 10.8209 27.5511 10.9429 27.5407 11.0603C27.5324 11.1541 27.5359 11.2464 27.5444 11.3497C27.5542 11.3716 27.5382 11.4201 27.5046 11.4013C27.5046 11.4013 27.4878 11.3919 27.4829 11.381C27.4583 11.3262 27.4848 11.1604 27.47 11.1276C27.4453 10.8757 27.4542 10.6426 27.4008 10.3829C27.391 10.361 27.3804 10.2812 27.3461 10.2046C27.3314 10.1717 27.2998 10.1295 27.2711 10.1217C27.2354 10.1264 27.2362 10.1843 27.2054 10.1999C27.2067 10.1186 27.1884 9.9934 27.1492 9.9058L27.1344 9.87295C27.098 9.81976 27.0196 9.84168 27 9.79788C26.8654 9.52569 26.8784 9.24566 26.8439 8.97189C26.8333 8.89211 26.7716 8.72629 26.7877 8.67779C26.7848 8.64337 26.8324 8.63711 26.8464 8.61208C26.8764 8.53854 26.7433 8.38212 26.8476 8.33361C26.8525 8.34456 26.8455 8.35708 26.8504 8.36803C26.8553 8.37898 26.8602 8.38993 26.8721 8.38836C26.9078 8.38366 26.9637 8.28353 26.9875 8.2804L27.0113 8.27726C27.0589 8.271 27.1163 8.28663 27.1401 8.2835C27.2234 8.27254 27.1771 8.19745 27.1813 8.15052C27.2092 8.10045 27.2729 8.04569 27.3275 8.02691C27.3463 8.01282 27.3701 8.00969 27.3939 8.00656C27.4653 7.99716 27.5584 8.0081 27.6298 7.9987C27.8251 7.98459 28.0141 8.04088 28.2171 8.07213C28.4943 8.12841 28.6784 8.17375 28.9235 8.32702C29.0412 8.39271 29.2183 8.45056 29.3031 8.55536C29.3248 8.5757 29.3395 8.60855 29.3493 8.63045C29.3886 8.71805 29.3971 8.8213 29.4196 8.89952C29.473 9.1592 29.5145 9.42045 29.5441 9.68327C29.6758 10.6516 29.6857 11.6012 29.7362 12.5571C29.7666 12.8778 29.7444 13.1938 29.7797 13.5254C29.7685 13.5849 29.7351 13.7632 29.817 13.8336C29.8605 13.8743 30.0053 13.832 30.0767 13.8226C30.1957 13.807 30.2979 13.7819 30.4168 13.7663C30.5953 13.7428 30.8074 13.738 31.0047 13.7005C31.3021 13.6613 31.6655 13.741 31.9567 13.7723C31.9686 13.7707 31.9854 13.7801 32.0092 13.777C32.0805 13.7676 32.1463 13.6893 32.2275 13.7018C32.2751 13.6956 32.3094 13.7722 32.3787 13.7863C32.4193 13.7925 32.4571 13.7644 32.5096 13.7691C32.5691 13.7612 32.6055 13.8144 32.658 13.8191C32.6986 13.8253 32.7126 13.8003 32.7413 13.8081C32.8729 13.8488 32.9479 13.9317 33.0417 14.0005C33.0971 14.0396 33.1545 14.0552 33.2049 14.0834C33.1454 14.0912 33.1314 14.1163 33.1363 14.1272C33.1461 14.1491 33.2015 14.1882 33.2281 14.2195C33.2428 14.2523 33.1665 14.2508 33.2169 14.2789C33.2604 14.3196 33.3149 14.3008 33.3724 14.3165C33.4011 14.3243 33.4256 14.379 33.4613 14.3743C33.5138 14.379 33.5684 14.3602 33.6069 14.39C33.6139 14.3774 33.6293 14.4682 33.6392 14.4901L33.3738 14.4322L33.3788 14.4432L33.4194 14.4494L33.3669 14.4447L33.4033 14.4979L33.3795 14.5011C33.3893 14.523 33.5209 14.5636 33.514 14.5761C33.507 14.5886 33.4377 14.5746 33.4524 14.6074C33.4622 14.6293 33.5385 14.6309 33.5126 14.6575C33.4966 14.706 33.4335 14.6215 33.4167 14.6121C33.4048 14.6137 33.3838 14.6512 33.3838 14.6512C33.3768 14.6638 33.353 14.6669 33.3412 14.6685C33.1508 14.6935 33.3013 14.7201 33.2495 14.7733C33.2167 14.8124 33.1634 14.7498 33.1446 14.7639C33.0781 14.7843 32.978 14.7858 32.9283 14.8156C32.8905 14.8437 32.9438 14.9063 32.9228 14.9439C32.9109 14.9454 32.9039 14.9579 32.8801 14.9611C32.8326 14.9673 32.7395 14.9564 32.7038 14.9611C32.6919 14.9627 32.6751 14.9533 32.6632 14.9549C32.6275 14.9596 32.5778 14.9893 32.5351 15.0065C32.4568 15.0284 32.3112 15.0128 32.2258 15.0472C32.1047 15.0864 31.969 15.0926 31.8836 15.1271C31.8269 15.1693 31.7002 15.1396 31.6506 15.1693C31.568 15.2382 31.456 15.2413 31.3518 15.2899C31.1909 15.3806 31.0034 15.4401 30.8781 15.5262C30.6795 15.6451 30.4521 15.7562 30.2751 15.8955C30.2423 15.9346 30.1471 15.9471 30.1072 15.9987C30.0128 16.0691 29.9323 16.1145 29.8715 16.2037C29.8596 16.2053 29.8526 16.2178 29.8526 16.2178C29.8051 16.2241 29.7546 16.1959 29.7378 16.1865C29.7259 16.1881 29.7091 16.1787 29.6972 16.1803C29.6377 16.1881 29.6245 16.271 29.5937 16.2867L29.5699 16.2898C29.5223 16.2961 29.4817 16.2898 29.458 16.2929C29.4083 16.3227 29.2999 16.4181 29.2068 16.4072C29.183 16.4103 29.1227 16.3603 29.099 16.3634C29.0563 16.3806 29.0311 16.4651 28.9766 16.4839C28.9696 16.4964 28.9577 16.498 28.9458 16.4995C28.922 16.5027 28.8765 16.4855 28.8408 16.4902C28.7743 16.5105 28.6967 16.5903 28.6008 16.545ZM37.378 15.1575C36.9973 15.2076 36.5794 15.1467 36.1951 15.1045C35.7583 15.0576 35.3334 15.0092 34.891 14.8935C34.207 14.7168 33.5585 14.3383 33.1494 13.8472C32.9995 13.6814 32.8803 13.4999 32.7969 13.3138C32.7036 13.1057 32.6747 12.9008 32.6459 12.6958C32.6227 12.5597 32.5777 12.4033 32.5951 12.2735C32.6923 11.3098 33.5218 10.5744 34.4628 10.1721C34.7259 10.0563 35.05 10.0485 35.3061 9.94517C35.3914 9.91074 35.4166 9.82626 35.49 9.7934L35.5327 9.77618C35.6279 9.76365 35.7504 9.84029 35.8218 9.83089L35.8456 9.82776C35.8932 9.82149 35.9023 9.78551 35.931 9.79332C35.9905 9.78549 36.0458 9.82459 36.0983 9.82928C36.3202 9.84645 36.5351 9.87614 36.7549 9.91678C36.841 9.94023 36.9579 9.94804 37.0538 9.99339C37.0706 10.0028 37.0923 10.0231 37.0972 10.0341C37.1722 10.117 37.1569 10.2233 37.2269 10.2953C37.2655 10.325 37.507 10.386 37.5595 10.3907C37.6001 10.3969 37.5706 10.3312 37.6182 10.325C37.7393 10.2858 37.8456 10.2138 37.9765 10.1966L38.0003 10.1935C38.0598 10.1857 38.1032 10.2263 38.1725 10.2404C38.2012 10.2482 38.2082 10.2357 38.232 10.2326C38.3153 10.2216 38.4784 10.3045 38.5932 10.3358C38.8544 10.4405 39.1163 10.6032 39.3446 10.7471C39.5897 10.9003 39.7872 11.0599 39.9588 11.246C40.155 11.4869 40.3414 11.7059 40.4592 11.9687C40.6212 12.3301 40.5431 12.7462 40.4209 13.0638C40.1716 13.688 39.6422 14.2216 39.0104 14.5831C38.5347 14.8428 37.9848 15.0776 37.378 15.1575ZM35.0872 13.4761C35.1838 13.5793 35.3421 13.6513 35.4688 13.681C35.7747 13.7451 36.077 13.7169 36.3507 13.6808C36.5648 13.6526 36.809 13.5509 36.972 13.4367C37.0825 13.3178 37.1832 13.177 37.3441 13.0862C37.3749 13.0705 37.5169 12.9939 37.5645 12.9876C37.617 12.9923 37.6555 13.022 37.715 13.0142C37.8458 12.9969 37.8772 12.8421 37.9843 12.828L37.9962 12.8264C38.0557 12.8186 38.1229 12.8561 38.1824 12.8483C38.2657 12.8373 38.2166 12.7278 38.2634 12.6637C38.3193 12.5635 38.3157 12.4712 38.2765 12.3836C38.2617 12.3508 38.2302 12.3085 38.2036 12.2773C38.0123 12.0473 37.5285 11.8675 37.2394 11.8128C37.1176 11.794 37.0056 11.7972 36.8789 11.7675C36.5058 11.6658 36.1047 11.6143 35.7421 11.5924C35.7715 11.6581 35.7121 11.666 35.6407 11.6754C35.5077 11.7161 35.4063 11.799 35.3434 11.9116C35.1596 12.2605 35.055 12.6454 35.0413 13.0647C35.0547 13.1789 35.0086 13.3009 35.0626 13.4213C35.0605 13.4448 35.0822 13.4651 35.0872 13.4761ZM46.0775 17.5723C45.6967 17.6224 45.2894 17.6412 44.8772 17.6491C44.341 17.6617 43.7881 17.6649 43.2386 17.5633C43.0881 17.5368 42.9347 17.4758 42.7912 17.4367C42.3964 17.3147 41.9917 17.1709 41.5989 17.0254C41.4337 16.966 41.2894 16.869 41.1431 16.7955C40.9967 16.722 40.8483 16.672 40.7348 16.5594L40.7131 16.539C40.6865 16.5078 40.6787 16.4624 40.6521 16.4311L40.6353 16.4217C40.5282 16.4358 40.4778 16.4077 40.4414 16.3545C40.393 16.3029 40.3636 16.2372 40.339 16.1824C40.3124 16.1511 40.2718 16.1449 40.262 16.123C40.2452 16.1136 40.2403 16.1026 40.2305 16.0807C40.2059 16.026 40.2409 15.9634 40.2163 15.9087L40.2065 15.8868C40.182 15.832 40.1168 15.771 40.0685 15.7194C40.0468 15.699 40.0419 15.6881 40.0369 15.6771C40.0075 15.6114 40.0404 15.5723 40.0347 15.5035C40.0151 15.4597 39.9779 15.3486 40.0156 15.3205C40.0345 15.3064 40.1108 15.3079 40.1703 15.3001C40.2774 15.286 40.2479 15.2203 40.3046 15.1781C40.3424 15.1499 40.4068 15.153 40.4445 15.1248C40.4823 15.0967 40.457 14.984 40.5046 14.9778C40.6047 14.9762 40.6685 15.1186 40.7518 15.1076L40.7637 15.106C40.8232 15.0982 40.7762 14.9652 40.8987 15.0419C40.9155 15.0512 40.9323 15.0606 40.9372 15.0716C40.9618 15.1263 40.7427 15.1436 40.9248 15.2124C40.999 15.2374 41.0634 15.2405 41.1229 15.2327C41.1942 15.2233 41.2726 15.2014 41.3391 15.181C41.3867 15.1748 41.456 15.1888 41.4987 15.1716C41.5462 15.1653 41.5833 15.0793 41.6239 15.0855C41.6813 15.1012 41.7128 15.1434 41.7632 15.1716C41.8879 15.2247 42.0006 15.2795 42.1203 15.3217C42.4844 15.4593 42.8632 15.6298 43.2146 15.7111C43.4967 15.7783 43.8117 15.8064 44.105 15.8142C44.322 15.8204 44.5291 15.8047 44.7314 15.7781C44.9693 15.7468 45.2094 15.692 45.4207 15.6294C45.6131 15.5808 45.8167 15.4729 45.8522 15.271C45.8689 15.0833 45.9065 14.858 45.8825 14.664C45.8578 14.4122 45.5976 12.9041 45.5198 12.7868C45.5219 12.7633 45.5121 12.7414 45.5022 12.7195C45.4777 12.6648 45.4322 12.6476 45.3965 12.6523C45.3132 12.6632 45.2426 12.7305 45.1999 12.7477C44.9676 12.8479 44.7423 12.9355 44.517 13.0232C44.4198 13.0592 44.3057 13.0858 44.1986 13.0999C43.8774 13.1422 43.5099 13.1094 43.176 13.0954C42.9422 13.0798 42.7351 13.0954 42.4817 13.036C42.0847 12.9375 41.4723 12.9486 41.0886 12.7672C40.9927 12.7218 40.8778 12.6905 40.7889 12.6327C40.7553 12.6139 40.7287 12.5826 40.702 12.5513C40.6439 12.4778 40.6095 12.4012 40.5682 12.337C40.4904 12.2197 40.4294 12.1118 40.3803 12.0023C40.2429 11.6957 40.2272 11.4078 40.2802 11.0762C40.3289 10.7914 40.3371 10.5004 40.46 10.2407C40.5299 10.1156 40.6313 10.0326 40.7229 9.92781C41.0068 9.57733 41.3915 9.28316 41.8491 9.09536C42.0506 9.01085 42.2886 8.97952 42.495 8.90596L42.5307 8.90126C42.8638 8.85741 43.1907 8.88395 43.5295 8.90893L43.6009 8.89953C43.6722 8.89013 43.7555 8.87917 43.8248 8.89323C44.0159 8.92606 44.2127 9.02771 44.3898 9.08557C44.464 9.11059 44.5838 9.15281 44.6601 9.15436C44.8175 9.16841 44.926 9.07297 45.0953 9.08546C45.1835 9.08544 45.2893 9.15269 45.3852 9.19805C45.6443 9.32629 45.8425 9.54371 46.0618 9.72358C46.122 9.77363 46.1955 9.74077 46.2557 9.79082C46.3888 9.94724 46.4513 10.1709 46.5655 10.3414C46.7653 10.6746 46.9413 11.011 47.0934 11.3504C47.1818 11.5475 47.168 11.7697 47.2514 11.9558C47.2661 11.9887 47.2977 12.0309 47.3243 12.0622C47.3558 12.1044 47.3824 12.1357 47.421 12.1654C47.4378 12.1748 47.4595 12.1951 47.4812 12.2155C47.5127 12.2577 47.5443 12.2999 47.5688 12.3547C47.7406 12.7379 47.7889 13.5201 47.8948 13.7845C48.2653 14.9765 48.4323 16.2765 47.4699 17.0526C47.3237 17.1763 47.1418 17.3046 46.9473 17.3766C46.6744 17.4705 46.3749 17.5331 46.0775 17.5723ZM41.3384 16.0508C41.3363 16.0743 41.363 16.1056 41.3847 16.1259C41.433 16.1775 41.4932 16.2276 41.5408 16.2213L41.5527 16.2198C41.6122 16.2119 41.6143 16.1885 41.5996 16.1556C41.5898 16.1337 41.568 16.1134 41.5631 16.1024C41.4882 16.0195 41.3824 15.9523 41.3516 15.9679C41.3159 15.9726 41.3188 16.007 41.3384 16.0508ZM42.1024 11.5436C42.1557 11.6062 42.2656 11.6265 42.3349 11.6406C42.4448 11.6609 42.5568 11.6578 42.652 11.6452C42.759 11.6311 42.8493 11.6077 42.9396 11.5842C43.0487 11.5466 43.1362 11.4887 43.2453 11.4511C43.288 11.4339 43.3356 11.4277 43.3832 11.4214C43.4189 11.4167 43.4665 11.4104 43.5092 11.3932C43.7484 11.2805 43.9226 11.1069 44.0799 10.9238C44.1645 10.8315 44.3296 10.6938 44.2609 10.5405L44.2391 10.5202C44.2076 10.4779 44.1432 10.4748 44.1026 10.4686C44.0214 10.4561 43.9094 10.4592 43.8143 10.4717C43.7667 10.478 43.7191 10.4843 43.6764 10.5015C43.591 10.5359 43.5028 10.5359 43.4175 10.5704C43.351 10.5907 43.2943 10.633 43.2328 10.6642C43.1663 10.6846 43.09 10.683 43.0284 10.7143C42.7793 10.8051 42.5786 10.9475 42.3876 11.1118C42.2981 11.1932 42.2254 11.2839 42.1457 11.3872C42.1247 11.4247 42.0779 11.4889 42.1024 11.5436Z" fill="black"/>
</svg>
